HIERARCHY
ROOT Hips
{
	OFFSET 0.000000 0.000000 0.000000
	CHANNELS 6 Xposition Yposition Zposition Zrotation Yrotation Xrotation 
	JOINT LHipJoint
	{
		OFFSET 0.000000 0.000000 0.000000
		CHANNELS 3 Zrotation Yrotation Xrotation
		JOINT LeftUpLeg
		{
			OFFSET 1.363060 -1.794630 0.839290
			CHANNELS 3 Zrotation Yrotation Xrotation
			JOINT LeftLeg
			{
				OFFSET 2.448110 -6.726130 0.000000
				CHANNELS 3 Zrotation Yrotation Xrotation
				JOINT LeftFoot
				{
					OFFSET 2.562200 -7.039590 0.000000
					CHANNELS 3 Zrotation Yrotation Xrotation
					JOINT LeftToeBase
					{
						OFFSET 0.157640 -0.433110 2.322550
						CHANNELS 3 Zrotation Yrotation Xrotation
						End Site
						{
							OFFSET 0.000000 0.000000 0.000000
						}
					}
				}
			}
		}
	}
	JOINT RHipJoint
	{
		OFFSET 0.000000 0.000000 0.000000
		CHANNELS 3 Zrotation Yrotation Xrotation
		JOINT RightUpLeg
		{
			OFFSET -1.305520 -1.794630 0.839290
			CHANNELS 3 Zrotation Yrotation Xrotation
			JOINT RightLeg
			{
				OFFSET -2.542530 -6.985550 0.000000
				CHANNELS 3 Zrotation Yrotation Xrotation
				JOINT RightFoot
				{
					OFFSET -2.568260 -7.056230 0.000000
					CHANNELS 3 Zrotation Yrotation Xrotation
					JOINT RightToeBase
					{
						OFFSET -0.164730 -0.452590 2.363150
						CHANNELS 3 Zrotation Yrotation Xrotation
						End Site
						{
							OFFSET 0.000000 0.000000 0.000000
						}
					}
				}
			}
		}
	}
	JOINT LowerBack
	{
		OFFSET 0.000000 0.000000 0.000000
		CHANNELS 3 Zrotation Yrotation Xrotation
		JOINT Spine
		{
			OFFSET 0.028270 2.035590 -0.193380
			CHANNELS 3 Zrotation Yrotation Xrotation
			JOINT Spine1
			{
				OFFSET 0.056720 2.048850 -0.042750
				CHANNELS 3 Zrotation Yrotation Xrotation
				JOINT Neck
				{
					OFFSET 0.000000 0.000000 0.000000
					CHANNELS 3 Zrotation Yrotation Xrotation
					JOINT Neck1
					{
						OFFSET -0.054170 1.746240 0.172020
						CHANNELS 3 Zrotation Yrotation Xrotation
						JOINT Head
						{
							OFFSET 0.104070 1.761360 -0.123970
							CHANNELS 3 Zrotation Yrotation Xrotation
							End Site
							{
								OFFSET 0.000000 0.000000 0.000000
							}
						}
					}
				}
				JOINT LeftShoulder
				{
					OFFSET 0.000000 0.000000 0.000000
					CHANNELS 3 Zrotation Yrotation Xrotation
					JOINT LeftArm
					{
						OFFSET 3.362410 1.200890 -0.311210
						CHANNELS 3 Zrotation Yrotation Xrotation
						JOINT LeftForeArm
						{
							OFFSET 4.983000 -0.000000 -0.000000
							CHANNELS 3 Zrotation Yrotation Xrotation
							JOINT LeftHand
							{
								OFFSET 3.483560 -0.000000 -0.000000
								CHANNELS 3 Zrotation Yrotation Xrotation
								JOINT LeftFingerBase
								{
									OFFSET 0.000000 0.000000 0.000000
									CHANNELS 3 Zrotation Yrotation Xrotation
									JOINT LeftHandIndex1
									{
										OFFSET 0.715260 -0.000000 -0.000000
										CHANNELS 3 Zrotation Yrotation Xrotation
										End Site
										{
											OFFSET 0.000000 0.000000 0.000000
										}
									}
								}
								JOINT LThumb
								{
									OFFSET 0.000000 0.000000 0.000000
									CHANNELS 3 Zrotation Yrotation Xrotation
									End Site
									{
										OFFSET 0.000000 0.000000 0.000000
									}
								}
							}
						}
					}
				}
				JOINT RightShoulder
				{
					OFFSET 0.000000 0.000000 0.000000
					CHANNELS 3 Zrotation Yrotation Xrotation
					JOINT RightArm
					{
						OFFSET -3.136600 1.374050 -0.404650
						CHANNELS 3 Zrotation Yrotation Xrotation
						JOINT RightForeArm
						{
							OFFSET -5.241900 -0.000000 -0.000000
							CHANNELS 3 Zrotation Yrotation Xrotation
							JOINT RightHand
							{
								OFFSET -3.444170 -0.000000 -0.000000
								CHANNELS 3 Zrotation Yrotation Xrotation
								JOINT RightFingerBase
								{
									OFFSET 0.000000 0.000000 0.000000
									CHANNELS 3 Zrotation Yrotation Xrotation
									JOINT RightHandIndex1
									{
										OFFSET -0.622530 -0.000000 -0.000000
										CHANNELS 3 Zrotation Yrotation Xrotation
										End Site
										{
											OFFSET 0.000000 0.000000 0.000000
										}
									}
								}
								JOINT RThumb
								{
									OFFSET 0.000000 0.000000 0.000000
									CHANNELS 3 Zrotation Yrotation Xrotation
									End Site
									{
										OFFSET 0.000000 0.000000 0.000000
									}
								}
							}
						}
					}
				}
			}
		}
	}
}
MOTION
Frames: 6
Frame Time: 0.008333
-15.638322 15.524310 -1.249606 62.512058 84.683254 78.111212 1.281804 -4.497273 -4.409723 -13.096056 6.266003 -35.046190 10.315149 19.300361 62.443636 1.603537 1.809902 -24.645975 0.996700 -6.353600 -17.813800 -4.354350 0.811505 -1.621564 3.629886 1.178368 -59.898457 -10.782556 -19.289133 64.167263 -0.250588 -4.081728 -13.697328 -0.045600 1.377600 -3.788300 -4.221516 -1.775345 27.550040 0.334945 -2.542058 0.251963 4.364530 -1.105997 -2.186208 -6.404684 4.071108 -23.734571 -0.895768 7.274627 3.603902 -0.652500 2.326900 10.189300 -8.376058 -3.996532 -0.418656 -61.192601 -19.051090 43.776608 42.236410 -48.942409 -21.208370 0.195096 0.289506 -14.330305 26.257609 -14.240160 -6.976500 -7.125000 0.000000 0.000000 -1.025600 13.894400 0.749400 11.771002 4.070728 -0.362573 60.860268 -3.076303 27.173830 -26.669020 37.944054 -10.615463 1.218853 0.838767 -13.257942 -7.841067 -29.348175 4.604400 7.125000 0.000000 0.000000 24.511700 -58.362500 -8.333300 
-15.484658 15.511373 -1.115400 62.130983 84.470902 77.520058 1.296953 -4.471090 -4.390723 -12.676900 6.406749 -34.446671 10.522719 19.362483 63.069732 1.439617 2.099638 -23.919795 1.100700 -6.666300 -18.730500 -4.402230 0.833640 -1.662200 3.842661 1.527489 -59.351587 -11.051873 -19.474136 65.058045 -0.309088 -3.993773 -14.697682 -0.054100 1.501300 -4.129200 -3.863222 -1.801381 27.464347 0.271438 -2.496481 0.300759 3.921183 -1.066934 -2.047805 -6.341438 4.116487 -23.867642 -1.098137 7.319533 3.590605 -0.734400 2.324500 10.212700 -8.395087 -3.997563 -0.418630 -61.674577 -18.675816 43.069262 38.663206 -47.101939 -18.585368 0.135923 0.252726 -13.837649 24.647605 -12.798211 -5.864400 -7.125000 0.000000 0.000000 -1.972300 15.697000 1.366000 11.749394 4.056432 -0.356200 61.169753 -2.683478 27.731973 -27.076738 38.266591 -10.797983 1.222204 0.819798 -13.834711 -8.035113 -29.011758 4.652000 7.125000 0.000000 0.000000 24.026600 -58.070500 -7.984500 
-15.331626 15.505799 -0.982036 61.112730 84.197720 76.301548 1.313759 -4.445434 -4.382146 -12.233079 6.596679 -34.086878 10.857662 19.469506 64.067814 1.226949 2.293564 -22.601020 1.256200 -7.105400 -20.028100 -4.464590 0.853560 -1.695637 4.025830 1.995866 -58.756371 -11.276724 -19.643205 65.804555 -0.359022 -4.026604 -15.611869 -0.069200 1.697100 -4.669300 -3.530227 -1.839290 27.420384 0.189732 -2.480612 0.344786 3.443405 -1.040358 -1.926123 -6.374054 4.198863 -24.136908 -1.153071 7.478998 3.648006 -0.701900 2.379700 10.295200 -8.432583 -3.986311 -0.427683 -62.112250 -18.293067 42.032259 35.166668 -45.074923 -16.152594 0.077491 0.233056 -13.262096 23.641976 -11.837413 -5.201600 -7.125000 0.000000 0.000000 -2.569600 16.853700 1.715900 11.713364 4.065762 -0.344599 61.511367 -2.229993 28.405890 -27.615119 38.681200 -11.042250 1.226366 0.792228 -14.515322 -8.351422 -28.513758 4.731500 7.125000 0.000000 0.000000 23.299600 -57.644400 -7.482400 
-15.177857 15.514213 -0.849618 59.912871 83.890437 74.892735 1.316243 -4.418115 -4.366519 -11.739933 6.809502 -34.006026 11.311071 19.609167 65.412158 0.919121 2.603861 -20.609895 1.416300 -7.526500 -21.284900 -4.554926 0.867496 -1.707845 4.178106 2.608556 -58.053852 -11.459313 -19.796083 66.414592 -0.401081 -4.159596 -16.462950 -0.084300 1.873200 -5.155400 -3.523142 -1.855915 27.431643 0.219177 -2.522053 0.265446 3.521331 -1.045223 -2.184593 -6.538498 4.468714 -23.541465 -1.281779 7.822996 3.624307 -0.685100 2.526400 10.165300 -8.441502 -3.996246 -0.437903 -63.032020 -17.243860 40.590216 32.090158 -43.159776 -14.138204 0.005144 0.210874 -12.694046 22.832245 -10.589301 -4.505800 -7.125000 0.000000 0.000000 -3.027100 18.283500 1.927300 11.714417 4.037171 -0.348325 61.493919 -2.121591 29.396404 -28.055240 39.003697 -11.215897 1.220548 0.768124 -15.001737 -8.731743 -27.787300 4.797500 7.125000 0.000000 0.000000 22.383700 -57.026100 -6.828700 
-15.024510 15.529779 -0.718989 59.524407 83.578307 74.236496 1.348734 -4.402007 -4.382985 -11.292710 7.025898 -34.156144 11.865233 19.772893 67.051922 0.527126 3.179553 -18.178476 1.390600 -7.460800 -21.087800 -4.626201 0.884830 -1.729497 4.275637 3.173379 -57.211663 -11.611482 -19.934108 66.923770 -0.450717 -4.279422 -17.352394 -0.099200 2.031400 -5.592400 -3.267377 -1.813764 27.456669 0.165051 -2.413755 0.284947 3.195039 -0.978341 -2.151714 -6.726251 4.414900 -23.715682 -1.273236 7.865430 3.797937 -0.620800 2.522000 10.285200 -8.466781 -3.973697 -0.459835 -63.724023 -16.643973 39.352617 29.412697 -41.308687 -12.444641 -0.052943 0.195954 -12.242694 22.226061 -9.758865 -4.051500 -7.125000 0.000000 0.000000 -3.384900 19.229600 2.084800 11.686378 4.050617 -0.339183 61.714729 -1.574478 29.865694 -28.316398 39.170994 -11.295013 1.221938 0.733982 -15.396853 -8.998959 -27.059743 4.800800 7.125000 0.000000 0.000000 21.600700 -56.369500 -6.225500 
-14.879997 15.544293 -0.596037 60.435227 83.407343 74.829913 1.397022 -4.393199 -4.417187 -10.801738 7.077910 -34.582539 12.510883 19.949572 68.942859 0.029328 4.260124 -15.458778 1.274500 -7.154900 -20.175200 -4.671209 0.896831 -1.743396 4.516257 3.433682 -56.364071 -11.741491 -20.037362 67.346644 -0.491567 -4.419019 -18.094746 -0.113400 2.171200 -5.979100 -2.824445 -1.874794 27.575341 0.134369 -2.385960 0.305779 2.860493 -0.948809 -2.156522 -6.933630 4.402771 -23.777777 -1.385909 7.950590 3.904107 -0.604700 2.527100 10.351200 -8.483675 -3.960062 -0.477271 -64.487495 -15.990504 37.921124 27.010246 -39.530567 -11.010772 -0.097880 0.196054 -11.402774 21.919957 -9.307431 -3.823100 -7.125000 0.000000 0.000000 -3.557600 19.727200 2.152100 11.669997 4.046056 -0.325127 61.796131 -0.945943 30.413537 -28.681228 39.440629 -11.490329 1.239665 0.741040 -15.886565 -9.253170 -27.425212 4.988700 7.125000 0.000000 0.000000 21.555500 -56.749100 -6.412800 
